<svg xmlns="http://www.w3.org/2000/svg" version="1.1" xmlns:xlink="http://www.w3.org/1999/xlink" xmlns:svgjs="http://svgjs.dev/svgjs" width="1000" height="999" viewBox="0 0 1000 999"><g transform="matrix(1,0,0,1,-0.215743440233382,-0.21552769679306039)"><svg viewBox="0 0 343 343" data-background-color="#ffffff" preserveAspectRatio="xMidYMid meet" height="999" width="1000" xmlns="http://www.w3.org/2000/svg" xmlns:xlink="http://www.w3.org/1999/xlink"><defs></defs><g id="tight-bounds" transform="matrix(1,0,0,1,0.0740000000000407,0.07400000000001228)"><svg viewBox="0 0 342.85155851775386 342.85155851775386" height="342.85155851775386" width="342.85155851775386"><g><svg></svg></g><g><svg viewBox="0 0 342.85155851775386 342.85155851775386" height="342.85155851775386" width="342.85155851775386"><g><path d="M0 171.426c0-94.676 76.75-171.426 171.426-171.426 94.676 0 171.426 76.75 171.426 171.426 0 94.676-76.75 171.426-171.426 171.426-94.676 0-171.426-76.75-171.426-171.426zM171.426 337.68c91.82 0 166.254-74.435 166.254-166.254 0-91.82-74.435-166.254-166.254-166.254-91.82 0-166.254 74.435-166.254 166.254 0 91.82 74.435 166.254 166.254 166.254z" data-fill-palette-color="tertiary" fill="#e65728" stroke="transparent"></path><ellipse rx="164.56874808852186" ry="164.56874808852186" cx="171.42577925887693" cy="171.42577925887693" fill="#e65728" stroke="transparent" stroke-width="0" fill-opacity="1" data-fill-palette-color="tertiary"></ellipse></g><g transform="matrix(1,0,0,1,64.84655864529837,81.7091148781808)"><svg viewBox="0 0 213.1584412271571 179.43332876139226" height="179.43332876139226" width="213.1584412271571"><g><svg viewBox="0 0 213.1584412271571 179.43332876139226" height="179.43332876139226" width="213.1584412271571"><g><svg viewBox="0 0 213.1584412271571 179.43332876139226" height="179.43332876139226" width="213.1584412271571"><g transform="matrix(1,0,0,1,0,93.24519401443943)"><svg viewBox="0 0 213.1584412271571 86.18813474695283" height="86.18813474695283" width="213.1584412271571"><g><svg viewBox="0 0 213.1584412271571 86.18813474695283" height="86.18813474695283" width="213.1584412271571"><g><svg viewBox="0 0 213.1584412271571 57.34688745514711" height="57.34688745514711" width="213.1584412271571"><g transform="matrix(1,0,0,1,0,0)"><svg width="213.1584412271571" viewBox="0.699999988079071 -34.29999923706055 175.99000549316406 47.349998474121094" height="57.34688745514711" data-palette-color="#ffffff"><path d="M37.25-33.4Q39.1-33.05 39.68-32.83 40.25-32.6 40.45-32.15L40.45-32.15Q39.4-28.1 37.7-20.68 36-13.25 35.4-10.7L35.4-10.7Q34.3-5.6 33.35-1.65L33.35-1.65Q32.65 1.1 31.15 1.1L31.15 1.1Q26.55 1.1 26.55-1.05L26.55-1.05Q26.55-0.2 29.15-12.35L29.15-12.35 30.05-16.65 20.1-1.25Q19.3-0.25 17.75-0.25L17.75-0.25Q16.45-0.25 15.33-0.9 14.2-1.55 14.35-2.2L14.35-2.2 11.6-18.35 7.5-1.8Q7.15-0.35 6.43 0.15 5.7 0.65 3.7 0.65L3.7 0.65Q2.15 0.65 1.43 0.13 0.7-0.4 0.7-1.65L0.7-1.65Q0.7-2.2 0.85-2.7L0.85-2.7 7.7-29.75Q8.25-31.95 8.88-32.68 9.5-33.4 11.15-33.4L11.15-33.4Q12.5-33.4 13.55-33.1 14.6-32.8 14.65-32.2L14.65-32.2 14.65-32.1 18.65-7.25Q20.8-10.7 25.73-18.65 30.65-26.6 33.45-31.05L33.45-31.05Q33.95-32.3 34.58-32.68 35.2-33.05 36.02-33.2 36.85-33.35 37.25-33.4L37.25-33.4ZM26.55-1.05L26.55-1.05ZM60.9-2.6Q61-1.3 61.25-0.25L61.25-0.25Q61.15 0.05 60.37 0.35 59.6 0.65 59.05 0.65L59.05 0.65Q57.25 0.65 56.47 0.13 55.7-0.4 55.7-1.45L55.7-1.45Q55.7-2.45 55.9-3.45L55.9-3.45Q54.8-1.95 52.67-0.98 50.55 0 49.25 0L49.25 0Q45.9 0 43.67-1.95 41.45-3.9 41.45-8.2L41.45-8.2Q41.45-12.25 43.37-15.83 45.3-19.4 48.7-21.58 52.1-23.75 56.25-23.75L56.25-23.75Q57.05-23.75 58.35-23.33 59.65-22.9 60.97-21.88 62.3-20.85 63.2-19.25L63.2-19.25Q63.6-19.25 64.15-18.85 64.7-18.45 64.7-18.05L64.7-18.05Q64.7-17.6 64.55-17.15L64.55-17.15 60.9-2.6ZM58.65-16.6Q58.35-17.7 57.47-18.45 56.6-19.2 55.9-19.2L55.9-19.2Q53.6-19.2 51.57-17.57 49.55-15.95 48.3-13.55 47.05-11.15 47.05-9L47.05-9Q47.05-6.9 47.55-5.55 48.05-4.2 49.5-4.2L49.5-4.2Q50.75-4.2 52.37-4.95 54-5.7 55.27-6.98 56.55-8.25 56.95-9.65L56.95-9.65 58.65-16.6ZM68.4-27.5Q68.4-28.2 68.82-28.63 69.25-29.05 70-29.4L70-29.4Q70.25-29.55 71.82-30.3 73.4-31.05 74.85-31.45L74.85-31.45Q75.3-32.45 76.22-33.1 77.15-33.75 78.6-33.75L78.6-33.75Q79.45-33.75 80-33.43 80.55-33.1 80.75-32.6L80.75-32.6Q82.6-33.2 85.2-33.2L85.2-33.2Q88.45-33.2 90.82-31.83 93.2-30.45 94.42-28.05 95.65-25.65 95.65-22.65L95.65-22.65Q95.65-22.05 95.5-21L95.5-21Q93.45-9.3 78-9.3L78-9.3Q76.6-9.3 75.95-9.35L75.95-9.35 75.3-6.95Q74.25-3.1 74.25-3L74.25-3Q73.85-1.25 73.02-0.3 72.2 0.65 70.35 0.65L70.35 0.65Q68.8 0.65 68.07 0.13 67.35-0.4 67.35-1.65L67.35-1.65Q67.35-2.2 67.5-2.7L67.5-2.7 73.55-26.05Q70.95-25.3 69.6-24L69.6-24Q69.05-24.6 68.72-25.58 68.4-26.55 68.4-27.5L68.4-27.5ZM77-14Q77.6-13.95 78.7-13.95L78.7-13.95Q83.45-13.95 86.22-15.75 89-17.55 89.8-21.3L89.8-21.3Q89.95-22.15 89.95-22.55L89.95-22.55Q89.95-25.35 88.4-26.73 86.85-28.1 84.05-28.1L84.05-28.1Q82.55-28.1 80.2-27.4L80.2-27.4Q78.25-19.65 77-14L77-14ZM111.24-2.1Q109.54-0.5 107.94 0.28 106.34 1.05 104.34 1.05L104.34 1.05Q101.04 1.05 99.27-1 97.49-3.05 97.49-6.45L97.49-6.45Q97.49-7.45 97.79-8.65L97.79-8.65 101.14-21.7Q101.44-22.8 102.22-23.33 102.99-23.85 104.74-23.85L104.74-23.85Q107.34-23.85 107.34-22.4L107.34-22.4Q107.34-21.8 106.99-20.5L106.99-20.5 103.64-7.1Q103.49-6.5 103.49-5.9L103.49-5.9Q103.49-4.85 104.04-4.2 104.59-3.55 105.79-3.55L105.79-3.55Q107.34-3.55 109.14-4.45 110.94-5.35 112.19-6.65L112.19-6.65 113.14-10.6Q114.09-14.6 115.34-19.25L115.34-19.25Q115.89-21.25 116.77-22.53 117.64-23.8 119.54-23.8L119.54-23.8Q122.19-23.8 122.19-22.2L122.19-22.2Q122.19-21.95 122.07-21.58 121.94-21.2 121.89-20.95L121.89-20.95 120.24-14.1Q117.64-3.2 116.84-0.15L116.84-0.15Q115.54 4.85 113.89 7.7 112.24 10.55 109.77 11.8 107.29 13.05 103.44 13.05L103.44 13.05Q100.99 13.05 99.42 12.35 97.84 11.65 97.12 10.65 96.39 9.65 96.39 8.8L96.39 8.8Q96.39 6.35 99.09 6.35L99.09 6.35Q99.84 6.35 100.32 6.65 100.79 6.95 101.29 7.5L101.29 7.5Q102.04 8.2 102.67 8.55 103.29 8.9 104.39 8.9L104.39 8.9Q105.24 8.9 106.29 8.2 107.34 7.5 108.34 6 109.34 4.5 109.99 2.25L109.99 2.25 111.24-2.1ZM134.69-34.3Q136.14-34.3 136.89-33.9 137.64-33.5 137.64-32.85L137.64-32.85Q138.59-33 139.31-33.05 140.04-33.1 140.94-33.1L140.94-33.1Q144.54-33.1 147.02-31.35 149.49-29.6 150.72-26.75 151.94-23.9 151.94-20.6L151.94-20.6Q151.94-19.75 151.89-19.35L151.89-19.35Q151.44-13.35 148.89-8.78 146.34-4.2 142.17-1.7 137.99 0.8 132.79 0.8L132.79 0.8Q131.34 0.8 129.24 0.45L129.24 0.45Q128.44 0.3 127.37-0.63 126.29-1.55 125.54-2.75 124.79-3.95 124.79-4.9L124.79-4.9Q124.79-5.45 124.94-5.95L124.94-5.95 130.19-26.2Q127.34-25.35 125.39-24L125.39-24Q124.79-24.6 124.49-25.5 124.19-26.4 124.19-27.35L124.19-27.35Q124.19-28.45 125.09-29.3L125.09-29.3Q127.44-30.8 131.59-31.85L131.59-31.85Q132.54-34.3 134.69-34.3L134.69-34.3ZM131.19-4.75Q132.39-4.45 133.79-4.45L133.79-4.45Q137.29-4.45 139.79-6.38 142.29-8.3 143.72-11.25 145.14-14.2 145.59-17.35L145.59-17.35Q145.79-18.6 145.79-20.15L145.79-20.15Q145.79-23.65 144.24-25.68 142.69-27.7 139.44-27.7L139.44-27.7Q138.04-27.7 136.89-27.5L136.89-27.5Q135.99-23.6 133.09-12.25L133.09-12.25Q131.54-6.15 131.19-4.75L131.19-4.75ZM162.19 1.05Q157.29 1.05 155.04-0.9 152.79-2.85 152.79-6.1L152.79-6.1Q152.79-10.85 155.16-14.9 157.54-18.95 161.51-21.33 165.49-23.7 170.09-23.7L170.09-23.7Q172.89-23.7 174.79-22.13 176.69-20.55 176.69-17.5L176.69-17.5Q176.69-15.75 175.56-14.63 174.44-13.5 172.34-12.63 170.24-11.75 165.54-10.15L165.54-10.15Q161.29-8.75 158.64-7.8L158.64-7.8Q158.44-7.05 158.44-6.25L158.44-6.25Q158.44-4.85 159.61-4.1 160.79-3.35 162.94-3.35L162.94-3.35Q164.29-3.35 166.04-3.9 167.79-4.45 168.24-5.3L168.24-5.3Q169.94-8.4 171.34-8.4L171.34-8.4Q173.39-8.4 174.11-7.63 174.84-6.85 174.89-5.9L174.89-5.9Q174.29-4.3 172.54-2.68 170.79-1.05 168.09 0 165.39 1.05 162.19 1.05L162.19 1.05ZM160.04-12.4Q164.99-14 168.19-15.38 171.39-16.75 171.39-18.1L171.39-18.1Q171.39-18.7 170.74-19.07 170.09-19.45 169.34-19.45L169.34-19.45Q167.84-19.45 165.91-18.3 163.99-17.15 162.34-15.5 160.69-13.85 160.04-12.4L160.04-12.4Z" opacity="1" transform="matrix(1,0,0,1,0,0)" fill="#ffffff" class="undefined-text-0" data-fill-palette-color="quaternary" id="text-0"></path></svg></g></svg></g><g transform="matrix(1,0,0,1,0,70.88511125800842)"><svg viewBox="0 0 213.1584412271571 15.303023488944403" height="15.303023488944403" width="213.1584412271571"><g transform="matrix(1,0,0,1,0,0)"><svg width="213.1584412271571" viewBox="2 -35.349998474121094 580.0800170898438 41.64999771118164" height="15.303023488944403" data-palette-color="#ffffff"><path d="M7.85 0L2.2 0Q2 0 2-0.25L2-0.25 2.1-34.6Q2.1-34.8 2.3-34.8L2.3-34.8 12.4-34.8Q15.1-34.8 17.38-33.48 19.65-32.15 21-29.93 22.35-27.7 22.35-24.9L22.35-24.9Q22.35-23.05 21.8-21.58 21.25-20.1 20.5-19.07 19.75-18.05 19.15-17.55L19.15-17.55Q21.85-14.55 21.85-10.5L21.85-10.5 21.9-0.25Q21.9 0 21.65 0L21.65 0 16 0Q15.8 0 15.8-0.15L15.8-0.15 15.8-10.5Q15.8-12.3 14.53-13.63 13.25-14.95 11.4-14.95L11.4-14.95 8.1-14.95 8.05-0.25Q8.05 0 7.85 0L7.85 0ZM8.1-28.8L8.1-20.95 12.4-20.95Q13.95-20.95 15.15-22.1 16.35-23.25 16.35-24.9L16.35-24.9Q16.35-26.5 15.18-27.65 14-28.8 12.4-28.8L12.4-28.8 8.1-28.8ZM42.45 0L26.3 0Q26.1 0 26.1-0.25L26.1-0.25 26.15-34.6Q26.15-34.8 26.35-34.8L26.35-34.8 42.4-34.8Q42.6-34.8 42.6-34.55L42.6-34.55 42.6-28.95Q42.6-28.75 42.4-28.75L42.4-28.75 32.15-28.75 32.15-20.95 42.4-20.95Q42.6-20.95 42.6-20.75L42.6-20.75 42.65-15.1Q42.65-14.9 42.45-14.9L42.45-14.9 32.15-14.9 32.15-6.15 42.45-6.15Q42.65-6.15 42.65-5.9L42.65-5.9 42.65-0.2Q42.65 0 42.45 0L42.45 0ZM56.3 0.5L56.3 0.5Q53.64 0.5 51.39-0.88 49.14-2.25 47.82-4.55 46.49-6.85 46.49-9.6L46.49-9.6 46.59-34.6Q46.59-34.8 46.8-34.8L46.8-34.8 52.39-34.8Q52.59-34.8 52.59-34.6L52.59-34.6 52.59-9.6Q52.59-7.9 53.67-6.73 54.74-5.55 56.3-5.55L56.3-5.55Q57.89-5.55 58.97-6.73 60.05-7.9 60.05-9.6L60.05-9.6 60.05-34.6Q60.05-34.8 60.24-34.8L60.24-34.8 65.84-34.8Q66.05-34.8 66.05-34.6L66.05-34.6 66.14-9.6Q66.14-6.8 64.82-4.5 63.5-2.2 61.27-0.85 59.05 0.5 56.3 0.5ZM78.59 0.5L78.59 0.5Q75.89 0.5 73.67-0.88 71.44-2.25 70.12-4.53 68.79-6.8 68.79-9.55L68.79-9.55 68.79-11.85Q68.79-12.1 69.04-12.1L69.04-12.1 74.64-12.1Q74.84-12.1 74.84-11.85L74.84-11.85 74.84-9.55Q74.84-7.9 75.94-6.73 77.04-5.55 78.59-5.55L78.59-5.55Q80.14-5.55 81.24-6.75 82.34-7.95 82.34-9.55L82.34-9.55Q82.34-11.4 79.94-12.75L79.94-12.75Q79.14-13.2 77.44-14.15 75.74-15.1 74.24-15.95L74.24-15.95Q71.49-17.55 70.17-19.98 68.84-22.4 68.84-25.45L68.84-25.45Q68.84-28.25 70.19-30.48 71.54-32.7 73.77-34 75.99-35.3 78.59-35.3L78.59-35.3Q81.24-35.3 83.47-33.98 85.69-32.65 87.02-30.43 88.34-28.2 88.34-25.45L88.34-25.45 88.34-21.35Q88.34-21.15 88.14-21.15L88.14-21.15 82.54-21.15Q82.34-21.15 82.34-21.35L82.34-21.35 82.29-25.45Q82.29-27.2 81.19-28.3 80.09-29.4 78.59-29.4L78.59-29.4Q77.04-29.4 75.94-28.23 74.84-27.05 74.84-25.45L74.84-25.45Q74.84-23.8 75.54-22.7 76.24-21.6 78.09-20.6L78.09-20.6Q78.34-20.45 79.07-20.08 79.79-19.7 80.64-19.23 81.49-18.75 82.17-18.4 82.84-18.05 82.99-17.95L82.99-17.95Q85.49-16.55 86.94-14.53 88.39-12.5 88.39-9.55L88.39-9.55Q88.39-6.7 87.07-4.42 85.74-2.15 83.52-0.83 81.29 0.5 78.59 0.5ZM108.24 0L92.09 0Q91.89 0 91.89-0.25L91.89-0.25 91.94-34.6Q91.94-34.8 92.14-34.8L92.14-34.8 108.19-34.8Q108.39-34.8 108.39-34.55L108.39-34.55 108.39-28.95Q108.39-28.75 108.19-28.75L108.19-28.75 97.94-28.75 97.94-20.95 108.19-20.95Q108.39-20.95 108.39-20.75L108.39-20.75 108.44-15.1Q108.44-14.9 108.24-14.9L108.24-14.9 97.94-14.9 97.94-6.15 108.24-6.15Q108.44-6.15 108.44-5.9L108.44-5.9 108.44-0.2Q108.44 0 108.24 0L108.24 0ZM112.89 6.3L112.89 6.3 112.89 3.2Q114.14 3.2 115.01 2.25 115.89 1.3 115.89 0L115.89 0 113.09 0Q112.89 0 112.89-0.2L112.89-0.2 112.89-5.8Q112.89-6 113.09-6L113.09-6 118.74-6Q118.94-6 118.94-5.8L118.94-5.8 118.94 0Q118.94 1.75 118.09 3.2 117.24 4.65 115.86 5.48 114.49 6.3 112.89 6.3ZM136.28 0L130.63 0Q130.43 0 130.43-0.25L130.43-0.25 130.53-34.6Q130.53-34.8 130.73-34.8L130.73-34.8 140.83-34.8Q143.53-34.8 145.81-33.48 148.08-32.15 149.43-29.93 150.78-27.7 150.78-24.9L150.78-24.9Q150.78-23.05 150.23-21.58 149.68-20.1 148.93-19.07 148.18-18.05 147.58-17.55L147.58-17.55Q150.28-14.55 150.28-10.5L150.28-10.5 150.33-0.25Q150.33 0 150.08 0L150.08 0 144.43 0Q144.23 0 144.23-0.15L144.23-0.15 144.23-10.5Q144.23-12.3 142.96-13.63 141.68-14.95 139.83-14.95L139.83-14.95 136.53-14.95 136.48-0.25Q136.48 0 136.28 0L136.28 0ZM136.53-28.8L136.53-20.95 140.83-20.95Q142.38-20.95 143.58-22.1 144.78-23.25 144.78-24.9L144.78-24.9Q144.78-26.5 143.61-27.65 142.43-28.8 140.83-28.8L140.83-28.8 136.53-28.8ZM170.88 0L154.73 0Q154.53 0 154.53-0.25L154.53-0.25 154.58-34.6Q154.58-34.8 154.78-34.8L154.78-34.8 170.83-34.8Q171.03-34.8 171.03-34.55L171.03-34.55 171.03-28.95Q171.03-28.75 170.83-28.75L170.83-28.75 160.58-28.75 160.58-20.95 170.83-20.95Q171.03-20.95 171.03-20.75L171.03-20.75 171.08-15.1Q171.08-14.9 170.88-14.9L170.88-14.9 160.58-14.9 160.58-6.15 170.88-6.15Q171.08-6.15 171.08-5.9L171.08-5.9 171.08-0.2Q171.08 0 170.88 0L170.88 0ZM181.38 0L175.78 0Q175.53 0 175.53-0.25L175.53-0.25 175.63-34.6Q175.63-34.8 175.83-34.8L175.83-34.8 185.43-34.8Q190.03-34.8 192.7-32 195.38-29.2 195.38-24.4L195.38-24.4Q195.38-20.85 193.98-18.25 192.58-15.65 190.33-14.25 188.08-12.85 185.43-12.85L185.43-12.85 181.63-12.85 181.63-0.25Q181.63 0 181.38 0L181.38 0ZM181.63-28.8L181.63-18.9 185.43-18.9Q187.03-18.9 188.2-20.43 189.38-21.95 189.38-24.4L189.38-24.4Q189.38-26.35 188.33-27.6 187.28-28.85 185.43-28.85L185.43-28.85 181.63-28.8ZM204.22 0L198.57 0Q198.38 0 198.38-0.25L198.38-0.25 198.47-34.6Q198.47-34.8 198.68-34.8L198.68-34.8 208.78-34.8Q211.47-34.8 213.75-33.48 216.03-32.15 217.38-29.93 218.72-27.7 218.72-24.9L218.72-24.9Q218.72-23.05 218.18-21.58 217.63-20.1 216.88-19.07 216.13-18.05 215.53-17.55L215.53-17.55Q218.22-14.55 218.22-10.5L218.22-10.5 218.28-0.25Q218.28 0 218.03 0L218.03 0 212.38 0Q212.18 0 212.18-0.15L212.18-0.15 212.18-10.5Q212.18-12.3 210.9-13.63 209.63-14.95 207.78-14.95L207.78-14.95 204.47-14.95 204.43-0.25Q204.43 0 204.22 0L204.22 0ZM204.47-28.8L204.47-20.95 208.78-20.95Q210.32-20.95 211.53-22.1 212.72-23.25 212.72-24.9L212.72-24.9Q212.72-26.5 211.55-27.65 210.38-28.8 208.78-28.8L208.78-28.8 204.47-28.8ZM231.47 0.5L231.47 0.5Q228.77 0.5 226.55-0.88 224.32-2.25 222.97-4.53 221.62-6.8 221.62-9.55L221.62-9.55 221.67-25.4Q221.67-28.15 223-30.4 224.32-32.65 226.57-34 228.82-35.35 231.47-35.35L231.47-35.35Q234.17-35.35 236.37-34 238.57-32.65 239.9-30.4 241.22-28.15 241.22-25.4L241.22-25.4 241.27-9.55Q241.27-6.8 239.95-4.53 238.62-2.25 236.4-0.88 234.17 0.5 231.47 0.5ZM231.47-5.55L231.47-5.55Q232.97-5.55 234.1-6.78 235.22-8 235.22-9.55L235.22-9.55 235.17-25.4Q235.17-27.05 234.12-28.2 233.07-29.35 231.47-29.35L231.47-29.35Q229.92-29.35 228.82-28.23 227.72-27.1 227.72-25.4L227.72-25.4 227.72-9.55Q227.72-7.9 228.82-6.73 229.92-5.55 231.47-5.55ZM254.27-0.05L245.32 0Q245.07 0 245.07-0.25L245.07-0.25 245.17-34.6Q245.17-34.8 245.37-34.8L245.37-34.8 254.72-34.85Q257.47-34.9 259.75-33.55 262.02-32.2 263.37-29.93 264.72-27.65 264.72-24.9L264.72-24.9 264.72-10.55Q264.72-7.65 263.32-5.28 261.92-2.9 259.57-1.5 257.22-0.1 254.27-0.05L254.27-0.05ZM251.22-28.8L251.17-6.15 254.27-6.15Q256.12-6.15 257.39-7.45 258.67-8.75 258.67-10.55L258.67-10.55 258.67-24.95Q258.67-26.55 257.5-27.73 256.32-28.9 254.72-28.85L254.72-28.85 251.22-28.8ZM277.72 0.5L277.72 0.5Q275.07 0.5 272.82-0.88 270.57-2.25 269.24-4.55 267.92-6.85 267.92-9.6L267.92-9.6 268.02-34.6Q268.02-34.8 268.22-34.8L268.22-34.8 273.82-34.8Q274.02-34.8 274.02-34.6L274.02-34.6 274.02-9.6Q274.02-7.9 275.09-6.73 276.17-5.55 277.72-5.55L277.72-5.55Q279.32-5.55 280.39-6.73 281.47-7.9 281.47-9.6L281.47-9.6 281.47-34.6Q281.47-34.8 281.67-34.8L281.67-34.8 287.27-34.8Q287.47-34.8 287.47-34.6L287.47-34.6 287.57-9.6Q287.57-6.8 286.24-4.5 284.92-2.2 282.69-0.85 280.47 0.5 277.72 0.5ZM300.72 0.5L300.72 0.5Q297.97 0.5 295.74-0.88 293.52-2.25 292.22-4.55 290.92-6.85 290.92-9.7L290.92-9.7 290.97-25.3Q290.97-28.05 292.24-30.33 293.52-32.6 295.74-33.98 297.97-35.35 300.72-35.35L300.72-35.35Q303.47-35.35 305.67-34 307.87-32.65 309.17-30.38 310.47-28.1 310.47-25.3L310.47-25.3 310.47-23Q310.47-22.8 310.27-22.8L310.27-22.8 304.67-22.8Q304.47-22.8 304.47-23L304.47-23 304.47-25.3Q304.47-26.95 303.39-28.15 302.32-29.35 300.72-29.35L300.72-29.35Q298.92-29.35 297.97-28.13 297.02-26.9 297.02-25.3L297.02-25.3 297.02-9.7Q297.02-7.85 298.09-6.7 299.17-5.55 300.72-5.55L300.72-5.55Q302.32-5.55 303.39-6.83 304.47-8.1 304.47-9.7L304.47-9.7 304.47-12Q304.47-12.2 304.67-12.2L304.67-12.2 310.32-12.2Q310.52-12.2 310.52-12L310.52-12 310.52-9.7Q310.52-6.85 309.19-4.55 307.87-2.25 305.67-0.88 303.47 0.5 300.72 0.5ZM330.51 0L314.36 0Q314.16 0 314.16-0.25L314.16-0.25 314.21-34.6Q314.21-34.8 314.41-34.8L314.41-34.8 330.46-34.8Q330.66-34.8 330.66-34.55L330.66-34.55 330.66-28.95Q330.66-28.75 330.46-28.75L330.46-28.75 320.21-28.75 320.21-20.95 330.46-20.95Q330.66-20.95 330.66-20.75L330.66-20.75 330.71-15.1Q330.71-14.9 330.51-14.9L330.51-14.9 320.21-14.9 320.21-6.15 330.51-6.15Q330.71-6.15 330.71-5.9L330.71-5.9 330.71-0.2Q330.71 0 330.51 0L330.51 0ZM335.16 6.3L335.16 6.3 335.16 3.2Q336.41 3.2 337.29 2.25 338.16 1.3 338.16 0L338.16 0 335.36 0Q335.16 0 335.16-0.2L335.16-0.2 335.16-5.8Q335.16-6 335.36-6L335.36-6 341.01-6Q341.21-6 341.21-5.8L341.21-5.8 341.21 0Q341.21 1.75 340.36 3.2 339.51 4.65 338.14 5.48 336.76 6.3 335.16 6.3ZM358.56 0L352.9 0Q352.7 0 352.7-0.25L352.7-0.25 352.81-34.6Q352.81-34.8 353-34.8L353-34.8 363.1-34.8Q365.81-34.8 368.08-33.48 370.35-32.15 371.7-29.93 373.06-27.7 373.06-24.9L373.06-24.9Q373.06-23.05 372.5-21.58 371.95-20.1 371.2-19.07 370.45-18.05 369.85-17.55L369.85-17.55Q372.56-14.55 372.56-10.5L372.56-10.5 372.6-0.25Q372.6 0 372.35 0L372.35 0 366.7 0Q366.5 0 366.5-0.15L366.5-0.15 366.5-10.5Q366.5-12.3 365.23-13.63 363.95-14.95 362.1-14.95L362.1-14.95 358.81-14.95 358.75-0.25Q358.75 0 358.56 0L358.56 0ZM358.81-28.8L358.81-20.95 363.1-20.95Q364.65-20.95 365.85-22.1 367.06-23.25 367.06-24.9L367.06-24.9Q367.06-26.5 365.88-27.65 364.7-28.8 363.1-28.8L363.1-28.8 358.81-28.8ZM393.15 0L377 0Q376.8 0 376.8-0.25L376.8-0.25 376.85-34.6Q376.85-34.8 377.05-34.8L377.05-34.8 393.1-34.8Q393.3-34.8 393.3-34.55L393.3-34.55 393.3-28.95Q393.3-28.75 393.1-28.75L393.1-28.75 382.85-28.75 382.85-20.95 393.1-20.95Q393.3-20.95 393.3-20.75L393.3-20.75 393.35-15.1Q393.35-14.9 393.15-14.9L393.15-14.9 382.85-14.9 382.85-6.15 393.15-6.15Q393.35-6.15 393.35-5.9L393.35-5.9 393.35-0.2Q393.35 0 393.15 0L393.15 0ZM403.7 0L398.05 0Q397.8 0 397.8-0.25L397.8-0.25 397.85-34.6Q397.85-34.8 398.05-34.8L398.05-34.8 403.65-34.8Q403.85-34.8 403.85-34.6L403.85-34.6 403.9-0.25Q403.9 0 403.7 0L403.7 0ZM413.75 0L408.75 0Q408.35 0 408.35-0.35L408.35-0.35 408.3-34.4Q408.3-34.8 408.7-34.8L408.7-34.8 413.2-34.8 421.65-15.1 421.4-34.4Q421.4-34.8 421.85-34.8L421.85-34.8 426.8-34.8Q427.1-34.8 427.1-34.4L427.1-34.4 427.15-0.3Q427.15 0 426.9 0L426.9 0 422.5 0 413.85-18.4 414.2-0.4Q414.2 0 413.75 0L413.75 0ZM442.14 0L436.5 0Q436.3 0 436.3-0.25L436.3-0.25 436.3-28.75 429.8-28.75Q429.55-28.75 429.55-29L429.55-29 429.6-34.6Q429.6-34.8 429.8-34.8L429.8-34.8 448.8-34.8Q449.05-34.8 449.05-34.6L449.05-34.6 449.05-29Q449.05-28.75 448.85-28.75L448.85-28.75 442.3-28.75 442.35-0.25Q442.35 0 442.14 0L442.14 0ZM467.84 0L451.69 0Q451.49 0 451.49-0.25L451.49-0.25 451.54-34.6Q451.54-34.8 451.74-34.8L451.74-34.8 467.79-34.8Q467.99-34.8 467.99-34.55L467.99-34.55 467.99-28.95Q467.99-28.75 467.79-28.75L467.79-28.75 457.54-28.75 457.54-20.95 467.79-20.95Q467.99-20.95 467.99-20.75L467.99-20.75 468.04-15.1Q468.04-14.9 467.84-14.9L467.84-14.9 457.54-14.9 457.54-6.15 467.84-6.15Q468.04-6.15 468.04-5.9L468.04-5.9 468.04-0.2Q468.04 0 467.84 0L467.84 0ZM478.34 0L472.69 0Q472.49 0 472.49-0.25L472.49-0.25 472.59-34.6Q472.59-34.8 472.79-34.8L472.79-34.8 482.89-34.8Q485.59-34.8 487.87-33.48 490.14-32.15 491.49-29.93 492.84-27.7 492.84-24.9L492.84-24.9Q492.84-23.05 492.29-21.58 491.74-20.1 490.99-19.07 490.24-18.05 489.64-17.55L489.64-17.55Q492.34-14.55 492.34-10.5L492.34-10.5 492.39-0.25Q492.39 0 492.14 0L492.14 0 486.49 0Q486.29 0 486.29-0.15L486.29-0.15 486.29-10.5Q486.29-12.3 485.01-13.63 483.74-14.95 481.89-14.95L481.89-14.95 478.59-14.95 478.54-0.25Q478.54 0 478.34 0L478.34 0ZM478.59-28.8L478.59-20.95 482.89-20.95Q484.44-20.95 485.64-22.1 486.84-23.25 486.84-24.9L486.84-24.9Q486.84-26.5 485.67-27.65 484.49-28.8 482.89-28.8L482.89-28.8 478.59-28.8ZM502.44 0L496.84 0Q496.59 0 496.59-0.25L496.59-0.25 496.69-34.6Q496.69-34.8 496.89-34.8L496.89-34.8 506.49-34.8Q511.09-34.8 513.76-32 516.44-29.2 516.44-24.4L516.44-24.4Q516.44-20.85 515.04-18.25 513.64-15.65 511.39-14.25 509.14-12.85 506.49-12.85L506.49-12.85 502.69-12.85 502.69-0.25Q502.69 0 502.44 0L502.44 0ZM502.69-28.8L502.69-18.9 506.49-18.9Q508.09-18.9 509.26-20.43 510.44-21.95 510.44-24.4L510.44-24.4Q510.44-26.35 509.39-27.6 508.34-28.85 506.49-28.85L506.49-28.85 502.69-28.8ZM525.28 0L519.63 0Q519.43 0 519.43-0.25L519.43-0.25 519.53-34.6Q519.53-34.8 519.73-34.8L519.73-34.8 529.83-34.8Q532.53-34.8 534.81-33.48 537.08-32.15 538.43-29.93 539.78-27.7 539.78-24.9L539.78-24.9Q539.78-23.05 539.23-21.58 538.68-20.1 537.93-19.07 537.18-18.05 536.58-17.55L536.58-17.55Q539.28-14.55 539.28-10.5L539.28-10.5 539.33-0.25Q539.33 0 539.08 0L539.08 0 533.43 0Q533.23 0 533.23-0.15L533.23-0.15 533.23-10.5Q533.23-12.3 531.96-13.63 530.68-14.95 528.83-14.95L528.83-14.95 525.53-14.95 525.48-0.25Q525.48 0 525.28 0L525.28 0ZM525.53-28.8L525.53-20.95 529.83-20.95Q531.38-20.95 532.58-22.1 533.78-23.25 533.78-24.9L533.78-24.9Q533.78-26.5 532.61-27.65 531.43-28.8 529.83-28.8L529.83-28.8 525.53-28.8ZM559.88 0L543.73 0Q543.53 0 543.53-0.25L543.53-0.25 543.58-34.6Q543.58-34.8 543.78-34.8L543.78-34.8 559.83-34.8Q560.03-34.8 560.03-34.55L560.03-34.55 560.03-28.95Q560.03-28.75 559.83-28.75L559.83-28.75 549.58-28.75 549.58-20.95 559.83-20.95Q560.03-20.95 560.03-20.75L560.03-20.75 560.08-15.1Q560.08-14.9 559.88-14.9L559.88-14.9 549.58-14.9 549.58-6.15 559.88-6.15Q560.08-6.15 560.08-5.9L560.08-5.9 560.08-0.2Q560.08 0 559.88 0L559.88 0ZM575.18 0L569.53 0Q569.33 0 569.33-0.25L569.33-0.25 569.33-28.75 562.83-28.75Q562.58-28.75 562.58-29L562.58-29 562.63-34.6Q562.63-34.8 562.83-34.8L562.83-34.8 581.83-34.8Q582.08-34.8 582.08-34.6L582.08-34.6 582.08-29Q582.08-28.75 581.88-28.75L581.88-28.75 575.33-28.75 575.38-0.25Q575.38 0 575.18 0L575.18 0Z" opacity="1" transform="matrix(1,0,0,1,0,0)" fill="#ffffff" class="undefined-text-1" data-fill-palette-color="quaternary" id="text-1"></path></svg></g></svg></g></svg></g></svg></g><g transform="matrix(1,0,0,1,40.713262274387006,0)"><svg viewBox="0 0 131.7319166783831 79.70697021157812" height="79.70697021157812" width="131.7319166783831"><g><svg xmlns="http://www.w3.org/2000/svg" xmlns:xlink="http://www.w3.org/1999/xlink" version="1.1" x="0" y="0" viewBox="6.102295398712158 21.945261001586914 88.93460845947266 53.811622619628906" enable-background="new 0 0 100 100" xml:space="preserve" height="79.70697021157812" width="131.7319166783831" class="icon-icon-0" data-fill-palette-color="quaternary" id="icon-0"><path d="M32.517 23.508l-9.49 0.992c1.838-0.073 3.573 1.561 3.987 3.853 0.415 2.292-0.64 4.431-2.387 5.004l9.238-2.393c1.66-0.3 2.703-2.213 2.331-4.271C35.824 24.634 34.177 23.207 32.517 23.508z" fill="#ffffff" data-fill-palette-color="quaternary"></path><path d="M41.146 22.664l-7.824 0.817c1.515-0.06 2.945 1.286 3.287 3.177 0.342 1.889-0.528 3.653-1.968 4.125l3.218-1.75 2.728 0.208 1.67-0.431c1.368-0.248 2.229-1.824 1.922-3.522C43.872 23.591 42.515 22.417 41.146 22.664z" fill="#ffffff" data-fill-palette-color="quaternary"></path><path d="M48.104 21.972l-6.343 0.664c1.229-0.049 2.388 1.042 2.665 2.575 0.277 1.532-0.427 2.961-1.595 3.344l6.173-1.599c1.111-0.201 1.808-1.479 1.559-2.855C50.315 22.725 49.215 21.771 48.104 21.972z" fill="#ffffff" data-fill-palette-color="quaternary"></path><path d="M17.661 44.638c-7.246 1.584-11.607 9.778-9.744 18.297 1.864 8.521 9.248 14.14 16.493 12.554 7.246-1.585 11.608-9.774 9.744-18.295C32.291 48.675 24.906 43.052 17.661 44.638zM22.176 47.449c0.512-0.113 1.018 0.213 1.13 0.725 0.112 0.513-0.212 1.017-0.724 1.13-0.512 0.111-1.018-0.213-1.13-0.725C21.339 48.066 21.664 47.559 22.176 47.449zM18.251 47.335c0.512-0.113 1.018 0.213 1.13 0.725 0.112 0.513-0.212 1.017-0.724 1.13-0.512 0.111-1.019-0.213-1.13-0.725C17.415 47.953 17.739 47.449 18.251 47.335zM14.26 49.18c0.512-0.11 1.018 0.213 1.13 0.726 0.112 0.512-0.211 1.016-0.724 1.13-0.512 0.11-1.018-0.213-1.13-0.726C13.424 49.797 13.748 49.293 14.26 49.18zM12.049 52.58c0.512-0.113 1.018 0.21 1.129 0.723 0.112 0.512-0.212 1.02-0.725 1.13-0.512 0.113-1.018-0.211-1.13-0.723C11.212 53.197 11.536 52.69 12.049 52.58zM10.557 56.714c0.513-0.113 1.018 0.21 1.131 0.723 0.112 0.512-0.212 1.019-0.725 1.13-0.512 0.113-1.018-0.211-1.129-0.723C9.72 57.331 10.044 56.824 10.557 56.714zM9.881 62.503c-0.112-0.513 0.212-1.017 0.725-1.13 0.512-0.11 1.018 0.213 1.13 0.726 0.112 0.512-0.212 1.019-0.724 1.13C10.499 63.342 9.993 63.015 9.881 62.503zM12.946 67.634c-0.512 0.113-1.018-0.213-1.13-0.726-0.112-0.512 0.212-1.016 0.725-1.129 0.513-0.111 1.018 0.213 1.13 0.725C13.782 67.017 13.459 67.521 12.946 67.634zM15.664 71.172c-0.513 0.113-1.018-0.211-1.131-0.723-0.112-0.513 0.212-1.02 0.725-1.13 0.513-0.113 1.018 0.21 1.13 0.723C16.5 70.555 16.176 71.062 15.664 71.172zM19.404 72.692c-0.512 0.113-1.018-0.21-1.13-0.723-0.112-0.513 0.212-1.02 0.724-1.13 0.512-0.113 1.019 0.211 1.13 0.723C20.241 72.075 19.917 72.582 19.404 72.692zM23.857 72.957c-0.512 0.113-1.019-0.211-1.13-0.723-0.112-0.513 0.212-1.02 0.725-1.13 0.512-0.113 1.018 0.21 1.13 0.723C24.693 72.339 24.369 72.846 23.857 72.957zM27.434 71.479c-0.513 0.113-1.019-0.214-1.13-0.726-0.112-0.513 0.212-1.017 0.725-1.13 0.512-0.11 1.018 0.213 1.13 0.726C28.27 70.861 27.946 71.368 27.434 71.479zM23.009 69.082c-4.236 0.928-8.554-2.359-9.644-7.34-1.09-4.982 1.46-9.771 5.697-10.699 4.237-0.925 8.554 2.362 9.645 7.343C29.796 63.365 27.245 68.157 23.009 69.082zM30.291 67.974c-0.512 0.11-1.019-0.213-1.13-0.726-0.112-0.512 0.212-1.019 0.725-1.13 0.513-0.112 1.018 0.211 1.13 0.723C31.127 67.354 30.804 67.86 30.291 67.974zM26.565 50.943c-0.512 0.11-1.019-0.213-1.13-0.726s0.212-1.017 0.725-1.13c0.512-0.11 1.018 0.213 1.13 0.726S27.078 50.83 26.565 50.943zM28.823 53.688c-0.112-0.513 0.212-1.02 0.725-1.13 0.512-0.113 1.018 0.21 1.129 0.723 0.112 0.512-0.211 1.019-0.724 1.132C29.441 54.524 28.936 54.2 28.823 53.688zM32.305 63.397c-0.512 0.113-1.018-0.21-1.13-0.722-0.112-0.513 0.212-1.02 0.725-1.133 0.513-0.11 1.018 0.213 1.13 0.726C33.141 62.78 32.817 63.287 32.305 63.397zM31.856 58.668c-0.513 0.111-1.018-0.213-1.13-0.725-0.113-0.513 0.211-1.017 0.724-1.13 0.512-0.113 1.018 0.213 1.13 0.726C32.692 58.051 32.368 58.555 31.856 58.668z" fill="#ffffff" data-fill-palette-color="quaternary"></path><path d="M59.13 65.245l-31.863 9.513c6.019-2.225 9.416-9.802 7.675-17.739-1.739-7.925-7.979-13.394-14.371-12.91l32.912-4.667c0.18-0.041 0.359-0.069 0.553-0.083 5.563-0.87 11.169 3.81 12.674 10.712 0.124 0.553 0.221 1.119 0.276 1.672C67.717 58.231 64.418 64.086 59.13 65.245z" fill="#ffffff" data-fill-palette-color="quaternary"></path><path d="M66.986 51.744l-7.553-2.058c-3.947-0.76-6.378-5.357-5.426-10.244 0-0.028 0.015-0.055 0.028-0.083 5.563-0.87 11.169 3.81 12.674 10.712C66.834 50.625 66.931 51.191 66.986 51.744z" fill="#ffffff" data-fill-palette-color="quaternary"></path><path d="M39.294 44.28l18.333 4.988c-3.464-1.189-5.51-5.471-4.63-10.024 0.881-4.553 4.376-7.766 8.032-7.574l-18.872-2.204c-3.298-0.637-6.612 2.163-7.401 6.253C33.964 39.811 35.996 43.644 39.294 44.28z" fill="#ffffff" data-fill-palette-color="quaternary"></path><path d="M94.722 43.943c-1.299-5.95-6.255-9.926-11.044-8.877l-1.836 0.262-25.693 3.631c5.343-0.4 10.575 4.169 12.024 10.794 0.181 0.817 0.289 1.618 0.332 2.402 0.386 5.703-2.333 10.783-6.751 12.412l26.632-7.938C93.188 55.567 96.02 49.894 94.722 43.943z" fill="#ffffff" data-fill-palette-color="quaternary"></path><path d="M22.667 39.638l15.115 4.113c-2.856-0.979-4.542-4.51-3.817-8.265 0.706-3.649 3.449-6.255 6.371-6.25 0.083 0 0.168 0.002 0.251 0.006l-15.559-1.818c-2.72-0.525-5.452 1.782-6.103 5.156C18.272 35.953 19.948 39.113 22.667 39.638z" fill="#ffffff" data-fill-palette-color="quaternary"></path><path d="M9.249 35.914l12.253 3.333c-2.315-0.793-3.682-3.654-3.094-6.699 0.589-3.043 2.925-5.19 5.368-5.062l-12.613-1.474c-2.205-0.425-4.419 1.445-4.946 4.181C5.687 32.927 7.044 35.488 9.249 35.914z" fill="#ffffff" data-fill-palette-color="quaternary"></path><path d="M22.216 24.634L10.86 25.82c2.199-0.087 4.276 1.868 4.772 4.61 0.495 2.742-0.765 5.301-2.855 5.987l4.73-1.226 1.8-8.113 4.078 0.416-2.84 6.91 3.283-0.849c1.987-0.358 3.235-2.648 2.789-5.111C26.172 25.98 24.201 24.274 22.216 24.634z" fill="#ffffff" data-fill-palette-color="quaternary"></path><path d="M59.247 49.49l5.02 1.367L54.92 39.248l8.001-1.245 7.897 14.637 10.189 2.771c-4.109-1.407-6.536-6.49-5.495-11.896 1.046-5.405 5.196-9.219 9.537-8.991l-22.402-2.617c-3.916-0.756-7.85 2.567-8.787 7.422C52.921 44.186 55.333 48.735 59.247 49.49z" fill="#ffffff" data-fill-palette-color="quaternary"></path></svg></g></svg></g><g></g></svg></g></svg></g></svg></g></svg></g></svg><rect width="342.85155851775386" height="342.85155851775386" fill="none" stroke="none" visibility="hidden"></rect></g></svg></g></svg>
